<svg xmlns:dc="http://purl.org/dc/elements/1.1/" xmlns:cc="http://creativecommons.org/ns#" xmlns:rdf="http://www.w3.org/1999/02/22-rdf-syntax-ns#" xmlns:svg="http://www.w3.org/2000/svg" xmlns="http://www.w3.org/2000/svg" xmlns:sodipodi="http://sodipodi.sourceforge.net/DTD/sodipodi-0.dtd" xmlns:inkscape="http://www.inkscape.org/namespaces/inkscape" version="1.1" x="0px" y="0px" viewBox="0 0 100 125"><g transform="translate(0,-952.36218)"><path style="color:#000000;enable-background:accumulate;" d="m 10.000002,972.36218 c -2.2160005,0 -4.0000005,1.784 -4.0000005,4 l 0,31.40622 24.7812005,-19.00002 c 0.8449,-0.5339 1.6257,-0.5564 2.5,0.063 l 18.843799,16.03122 14.75,-10.15622 c 0.7264,-0.4895 1.7795,-0.4218 2.4375,0.1562 l 5.4063,4.7812 1.2812,-2.2816 3.7188,6.68752 6.281198,5.5625 0,-33.25002 c 0,-2.216 -1.784001,-4 -4,-4 l -71.999997,0 z m 42.999999,8 c 2.7614,0 5,2.2386 5,5 0,2.7614 -2.2386,5 -5,5 -2.761399,0 -5,-2.2386 -5,-5 0,-2.7614 2.238601,-5 5,-5 z m -21.0625,12.5312 -25.9374995,19.90632 0,7.5625 c 0,2.216 1.784,4 3.9999995,4 l 51,0 11.75,-21.1562 -4.9062,-4.34382 -14.7188,10.12502 c -0.7141,0.4828 -1.7461,0.4292 -2.4062,-0.125 l -18.7813,-15.96882 z m 44.0625,7.46882 -18,32 35.999998,0 -17.999998,-32 z m 0,8 c 1.1046,0 2,0.8954 2,2 l 0,11 c 0,1.1046 -0.8954,2 -2,2 -1.104699,0 -2,-0.8954 -2,-2 l 0,-11 c 0,-1.1046 0.895301,-2 2,-2 z m 9.531198,6.125 0.4688,0.875 0,-0.4375 -0.4688,-0.4375 z m -9.531198,9.875 c 1.3807,0 2.5,1.1193 2.5,2.5 0,1.3807 -1.1193,2.5 -2.5,2.5 -1.380799,0 -2.5,-1.1193 -2.5,-2.5 0,-1.3807 1.119201,-2.5 2.5,-2.5 z" fill="#000000" stroke="none" marker="none" visibility="visible" display="inline" overflow="visible"/></g></svg>